<svg width="20" height="17" viewBox="0 0 20 17" fill="none" xmlns="http://www.w3.org/2000/svg">
<path fill-rule="evenodd" clip-rule="evenodd" d="M3.43039 4.32964C4.20714 2.35921 5.14147 1 7.25658 1H12.9261C15.0392 1 15.9746 2.35921 16.7523 4.32964L17.5291 6.43786C18.1079 6.44501 18.6396 6.76637 18.926 7.28219C19.0946 7.57599 19.1828 7.91093 19.1816 8.25187V10.9703C19.1891 11.605 18.8767 12.1987 18.3554 12.5408C18.1074 12.6992 17.8212 12.7831 17.5291 12.7832H2.65263C2.36053 12.7831 2.07431 12.6992 1.82638 12.5408C1.30499 12.1987 0.992612 11.605 1.00013 10.9703V8.25187C0.999035 7.91134 1.08731 7.57672 1.25568 7.28322C1.54217 6.76741 2.07385 6.44605 2.65263 6.4389L3.43039 4.32964Z" stroke-width="1.55397" stroke-linecap="round" stroke-linejoin="round"/>
<path d="M5.08313 12.7844C5.08313 12.3553 4.73527 12.0074 4.30614 12.0074C3.87703 12.0074 3.52916 12.3553 3.52916 12.7844H5.08313ZM4.30614 14.1446H3.52916C3.52916 14.1527 3.52928 14.1608 3.52954 14.1689L4.30614 14.1446ZM3.06576 15.5038L3.038 16.2803C3.0563 16.281 3.07462 16.281 3.09292 16.2804L3.06576 15.5038ZM1.8264 14.1436L2.60298 14.1685C2.60325 14.1602 2.60338 14.1519 2.60338 14.1436H1.8264ZM2.60338 12.5409C2.60338 12.1118 2.25551 11.764 1.8264 11.764C1.39727 11.764 1.04941 12.1118 1.04941 12.5409H2.60338ZM2.65264 5.66101C2.22352 5.66101 1.87566 6.00888 1.87566 6.43798C1.87566 6.86708 2.22352 7.21496 2.65264 7.21496V5.66101ZM17.5291 7.21496C17.9582 7.21496 18.3061 6.86708 18.3061 6.43798C18.3061 6.00888 17.9582 5.66101 17.5291 5.66101V7.21496ZM16.6536 12.7834C16.6536 12.3543 16.3057 12.0064 15.8766 12.0064C15.4475 12.0064 15.0996 12.3543 15.0996 12.7834H16.6536ZM15.8766 14.1436L16.6521 14.1919C16.6531 14.1758 16.6536 14.1598 16.6536 14.1436H15.8766ZM18.3563 14.1436H17.5793C17.5793 14.1598 17.5799 14.1758 17.5809 14.1919L18.3563 14.1436ZM19.1333 12.5409C19.1333 12.1118 18.7855 11.764 18.3563 11.764C17.9272 11.764 17.5793 12.1118 17.5793 12.5409H19.1333ZM4.0304 9.02896C3.60127 9.02896 3.25341 9.37685 3.25341 9.80595C3.25341 10.2351 3.60127 10.5829 4.0304 10.5829V9.02896ZM5.04048 10.5829C5.46959 10.5829 5.81746 10.2351 5.81746 9.80595C5.81746 9.37685 5.46959 9.02896 5.04048 9.02896V10.5829ZM15.1413 9.02896C14.7122 9.02896 14.3643 9.37685 14.3643 9.80595C14.3643 10.2351 14.7122 10.5829 15.1413 10.5829V9.02896ZM16.1514 10.5829C16.5805 10.5829 16.9283 10.2351 16.9283 9.80595C16.9283 9.37685 16.5805 9.02896 16.1514 9.02896V10.5829ZM3.52916 12.7844V14.1446H5.08313V12.7844H3.52916ZM3.52954 14.1689C3.53944 14.486 3.30075 14.7182 3.03861 14.7274L3.09292 16.2804C4.24707 16.24 5.11823 15.256 5.08276 14.1204L3.52954 14.1689ZM3.09353 14.7274C2.83136 14.7181 2.59283 14.4856 2.60298 14.1685L1.04981 14.1187C1.01342 15.2544 1.88385 16.2391 3.038 16.2803L3.09353 14.7274ZM2.60338 14.1436V12.5409H1.04941V14.1436H2.60338ZM2.65264 7.21496H17.5291V5.66101H2.65264V7.21496ZM15.0996 12.7834V14.1436H16.6536V12.7834H15.0996ZM15.1012 14.0953C15.0544 14.8478 15.4183 15.5741 16.0624 15.9745L16.8828 14.6547C16.7353 14.5631 16.6399 14.387 16.6521 14.1919L15.1012 14.0953ZM16.0624 15.9745C16.7093 16.3766 17.5236 16.3766 18.1706 15.9745L17.3503 14.6547C17.2057 14.7446 17.0274 14.7446 16.8828 14.6547L16.0624 15.9745ZM18.1706 15.9745C18.8148 15.5741 19.1787 14.8478 19.1319 14.0953L17.5809 14.1919C17.593 14.387 17.4977 14.5631 17.3503 14.6547L18.1706 15.9745ZM19.1333 14.1436V12.5409H17.5793V14.1436H19.1333ZM4.0304 10.5829H5.04048V9.02896H4.0304V10.5829ZM15.1413 10.5829H16.1514V9.02896H15.1413V10.5829Z"/>
</svg>
