<svg width="20" height="13" viewBox="0 0 20 13" fill="none" xmlns="http://www.w3.org/2000/svg">
<path d="M6.85664 10.1995H12.6072C12.7726 10.1995 12.9312 10.1337 13.0482 10.0168C13.1652 9.89982 13.2309 9.74118 13.2309 9.57577L15.4027 1.62373C15.4027 1.5412 15.3863 1.45949 15.3545 1.38333C15.3227 1.30717 15.2761 1.23808 15.2174 1.18007C15.1587 1.12206 15.089 1.07627 15.0125 1.04537C14.936 1.01447 14.8541 0.999062 14.7715 1.00004H5.34568C5.17992 1.00004 5.0209 1.06563 4.90335 1.18249C4.78579 1.29935 4.71926 1.45798 4.71828 1.62373L2.86206 9.57577C2.86206 9.74118 2.92777 9.89982 3.04473 10.0168C3.1617 10.1337 3.32034 10.1995 3.48575 10.1995H4.29506" stroke-width="1.44785"/>
<path d="M14.2743 10.1996H12.9861L14.8423 3.78076H17.8939C17.9398 3.78066 17.9852 3.79057 18.0269 3.80981C18.0685 3.82904 18.1055 3.85714 18.1352 3.89214L19.4643 6.23097C19.5119 6.28548 19.5383 6.35534 19.5385 6.42773L18.3023 10.1996H16.9658" stroke-width="1.44785"/>
<path d="M5.60534 12C6.36601 12 6.98265 11.375 6.98265 10.6041C6.98265 9.83321 6.36601 9.20825 5.60534 9.20825C4.84467 9.20825 4.22803 9.83321 4.22803 10.6041C4.22803 11.375 4.84467 12 5.60534 12Z" stroke-width="1.44785"/>
<path d="M15.6439 12C16.4046 12 17.0212 11.375 17.0212 10.6041C17.0212 9.83321 16.4046 9.20825 15.6439 9.20825C14.8832 9.20825 14.2666 9.83321 14.2666 10.6041C14.2666 11.375 14.8832 12 15.6439 12Z" stroke-width="1.44785"/>
<path d="M7.43937 2.82666H1.3584" stroke-width="1.44785" stroke-linecap="round"/>
<path d="M6.24035 4.77185H1.94507" stroke-width="1.44785" stroke-linecap="round"/>
<path d="M6.67496 6.96216H0" stroke-width="1.44785" stroke-linecap="round"/>
</svg>
