<svg width="18" height="15" viewBox="0 0 18 15" fill="none" xmlns="http://www.w3.org/2000/svg">
<path d="M15.6 1.8C15.6 0.805888 14.7941 0 13.8 0H1.8C0.805887 0 0 0.805887 0 1.8V10.2C0 11.1941 0.805887 12 1.8 12H13.8C14.7941 12 15.6 11.1941 15.6 10.2V1.8ZM14.4 9C14.4 9.99411 13.5941 10.8 12.6 10.8H3C2.00589 10.8 1.2 9.99411 1.2 9V3C1.2 2.00589 2.00589 1.2 3 1.2H12.6C13.5941 1.2 14.4 2.00589 14.4 3V9Z"/>
<path d="M17.4 3C17.0686 3 16.8 3.26863 16.8 3.6V11.4C16.8 12.3941 15.9941 13.2 15 13.2H3.6C3.26863 13.2 3 13.4686 3 13.8C3 14.1314 3.26863 14.4 3.6 14.4H16.2C17.1941 14.4 18 13.5941 18 12.6V3.6C18 3.26863 17.7314 3 17.4 3Z"/>
<path d="M7.79998 8.9422C9.28873 8.9422 10.5 7.62456 10.5 6.00497C10.5 4.38539 9.28873 3.06775 7.79998 3.06775C6.31123 3.06775 5.09998 4.38535 5.09998 6.00497C5.09998 7.6246 6.31123 8.9422 7.79998 8.9422ZM7.79998 4.26775C8.62708 4.26775 9.29998 5.04707 9.29998 6.00497C9.29998 6.96287 8.62708 7.7422 7.79998 7.7422C6.97288 7.7422 6.29998 6.96287 6.29998 6.00497C6.29998 5.04707 6.97288 4.26775 7.79998 4.26775Z"/>
<path d="M3.5999 2.69995H2.3999V9.29995H3.5999V2.69995Z"/>
<path d="M13.2 2.69995H12V9.29995H13.2V2.69995Z"/>
</svg>
