<svg width="18" height="17" viewBox="0 0 18 17" fill="none" xmlns="http://www.w3.org/2000/svg">
<path fill-rule="evenodd" clip-rule="evenodd" d="M8.58643 1.93624C9.52235 0.750409 10.9563 0 12.4503 0C15.0949 0 17.1729 2.24196 17.1729 5.09537C17.1729 8.5944 14.2583 11.446 9.84234 15.7665L9.83146 15.7771L8.58643 17L7.3414 15.7864L7.30751 15.7531C2.90448 11.4361 0 8.58832 0 5.09537C0 2.24196 2.07792 0 4.72254 0C6.21657 0 7.65051 0.750409 8.58643 1.93624ZM8.5854 14.4986L8.67126 14.406C12.7584 10.4131 15.4545 7.77272 15.4545 5.09534C15.4545 3.24248 14.1666 1.85283 12.4493 1.85283C11.127 1.85283 9.83902 2.77 9.39252 4.03921H7.78686C7.33178 2.77 6.04382 1.85283 4.72151 1.85283C3.00422 1.85283 1.71626 3.24248 1.71626 5.09534C1.71626 7.77272 4.4124 10.4131 8.49954 14.406L8.5854 14.4986Z"/>
</svg>
