<svg width="20" height="17" viewBox="0 0 20 17" fill="none" xmlns="http://www.w3.org/2000/svg">
<path d="M6.82353 15.7392V14.1509C6.82353 12.9814 5.87543 12.0333 4.70588 12.0333H4.38989C3.90903 12.0333 3.44249 11.8696 3.06701 11.5692L1.42768 10.2578C1.17071 10.0522 1.06913 9.70823 1.1732 9.39604V9.39604C1.34601 8.8776 1.98229 8.6897 2.40903 9.03108L3.65626 10.0289C3.99301 10.2983 4.41142 10.445 4.84267 10.445H7.55516C7.77033 10.445 7.98255 10.4951 8.175 10.5914V10.5914C8.64456 10.8261 8.94118 11.3061 8.94118 11.8311V15.7392" stroke-width="1.05882" stroke-linecap="round"/>
<path d="M13.1765 15.7392V14.1509C13.1765 12.9814 14.1246 12.0333 15.2941 12.0333H15.6101C16.091 12.0333 16.5575 11.8696 16.933 11.5692L18.5723 10.2578C18.8293 10.0522 18.9309 9.70823 18.8268 9.39604V9.39604C18.654 8.8776 18.0177 8.6897 17.591 9.03108L16.3437 10.0289C16.007 10.2983 15.5886 10.445 15.1573 10.445H12.4448C12.2297 10.445 12.0175 10.4951 11.825 10.5914V10.5914C11.3554 10.8261 11.0588 11.3061 11.0588 11.8311V15.7392" stroke-width="1.05882" stroke-linecap="round"/>
<rect x="6.09999" y="0.566667" width="7.93333" height="7.93333" rx="0.566667"  stroke-width="1.13333"/>
<path d="M6.09998 4.53333L6.51095 4.9443C6.93097 5.36432 7.58907 5.42948 8.08331 5.09999L8.26651 4.97786C8.65423 4.71938 9.17048 4.7705 9.49998 5.09999V5.09999C9.82947 5.42948 10.3457 5.4806 10.7334 5.22213L11.3081 4.839C11.6071 4.63969 11.9584 4.53333 12.3177 4.53333H14.0333" stroke-width="1.13333" stroke-linecap="round"/>
</svg>
