<svg width="26" height="26" viewBox="0 0 26 26" fill="none" xmlns="http://www.w3.org/2000/svg">
<path d="M17.1744 22.3944C16.0582 23.4685 14.6261 24.0056 13.1939 24.0056C11.7618 24.0056 10.3297 23.458 9.21347 22.3839C8.83437 22.0259 8.45528 21.6257 8.07617 21.215L21.6604 7.63086C21.9236 8.1995 22.1237 8.79973 22.2711 9.46315C23.5032 14.8968 20.1756 19.4881 17.1744 22.3944Z" fill="#F79009"/>
<path d="M23.4813 2.64709C23.1654 2.33118 22.6494 2.33118 22.3335 2.64709L2.9049 22.0862C2.58899 22.4021 2.58899 22.9181 2.9049 23.234C3.06286 23.3814 3.26294 23.4657 3.47354 23.4657C3.68415 23.4657 3.88423 23.3814 4.04219 23.2235L23.4813 3.78437C23.8077 3.46846 23.8077 2.963 23.4813 2.64709Z" fill="#F79009"/>
<path d="M9.87684 11.157C9.87684 9.32473 11.3616 7.83994 13.1939 7.83994C14.5733 7.83994 15.7528 8.68237 16.2582 9.88284L20.4493 5.69174C18.5854 3.43823 15.7634 2.40625 13.1939 2.40625C11.33 2.40625 9.33979 2.95383 7.67599 4.10164C6.01218 5.25999 4.66429 7.01857 4.11671 9.45109C3.23216 13.3157 4.66429 16.7697 6.65454 19.476L11.9197 14.2108C10.7193 13.7159 9.87684 12.526 9.87684 11.157Z" fill="#F79009"/>
</svg>
