<svg width="22" height="20" viewBox="0 0 22 20" fill="none" xmlns="http://www.w3.org/2000/svg">
<g clip-path="url(#clip0_2171_153125)">
<path d="M9.70246 17.4818C7.6971 17.4818 6.06489 15.9312 6.06489 14.0261V2.45508L1.93022 3.35432C0.908261 3.60965 0.295497 4.61058 0.565834 5.59037L4.11094 18.1648C4.34633 18.9779 5.13289 19.5162 5.97681 19.5162C6.1351 19.5162 6.29605 19.4974 6.45527 19.4576L15.0826 17.4818H9.70246Z" fill="#EAECF0"/>
<path d="M21.0439 2.23605V14.0258C21.0439 15.2617 19.9911 16.2619 18.6901 16.2619H9.70335C8.82181 16.2619 8.05155 15.7984 7.64925 15.1153C7.46088 14.7982 7.34961 14.4242 7.34961 14.0258V2.23605C7.34961 1.00004 8.40244 0 9.70335 0H18.6901C19.9911 0 21.0439 1.00004 21.0439 2.23605Z" fill="#F3FAF8"/>
<path d="M13.3397 5.69249C13.3397 6.59069 12.5733 7.31872 11.6278 7.31872C10.6825 7.31872 9.91602 6.59069 9.91602 5.69249C9.91602 4.79444 10.6825 4.06641 11.6278 4.06641C12.5733 4.06641 13.3397 4.79444 13.3397 5.69249Z" fill="#475467"/>
<path d="M21.0431 9.70786V14.0254C21.0431 15.2613 19.9902 16.2615 18.6893 16.2615H9.70253C8.821 16.2615 8.05073 15.798 7.64844 15.1149L16.1303 7.05718C16.7122 6.50438 17.6708 6.50438 18.2529 7.05718L21.0431 9.70786Z" fill="#475467"/>
<path d="M18.5275 16.2614H9.70335C8.82181 16.2614 8.05155 15.798 7.64925 15.1149C7.46088 14.7978 7.34961 14.4238 7.34961 14.0254V12.1471L9.71197 9.90299C10.2939 9.35004 11.2525 9.35004 11.8345 9.90299L18.5275 16.2614Z" fill="#1D2939"/>
</g>
<defs>
<clipPath id="clip0_2171_153125">
<rect width="20.543" height="19.5158" fill="white" transform="translate(0.5)"/>
</clipPath>
</defs>
</svg>
