<svg width="19" height="19" viewBox="0 0 19 19" fill="none" xmlns="http://www.w3.org/2000/svg">
<path d="M16.1284 5.42745L8.79786 9.5M8.79786 9.5L1.46731 5.42745M8.79786 9.5V17.6929M10.5227 17.1659L9.46796 17.7518C9.22338 17.8878 9.10109 17.9556 8.97164 17.9823C8.85694 18.0059 8.73879 18.0059 8.62417 17.9823C8.49464 17.9556 8.37234 17.8878 8.12776 17.7518L1.74587 14.2064C1.48757 14.0629 1.3584 13.9911 1.26435 13.889C1.18116 13.7988 1.11819 13.6918 1.07967 13.5752C1.03613 13.4434 1.03613 13.2957 1.03613 13.0001V5.99984C1.03613 5.70434 1.03613 5.55659 1.07967 5.42481C1.11819 5.30823 1.18116 5.20122 1.26435 5.11094C1.3584 5.00888 1.48756 4.93713 1.74587 4.79362L8.12776 1.24814C8.37234 1.11226 8.49464 1.04432 8.62417 1.01768C8.73879 0.994108 8.85694 0.994108 8.97164 1.01768C9.10109 1.04432 9.22338 1.11226 9.46796 1.24814L15.8498 4.79362C16.1082 4.93713 16.2373 5.00888 16.3314 5.11094C16.4145 5.20122 16.4776 5.30823 16.516 5.42481C16.5596 5.55659 16.5596 5.70434 16.5596 5.99984V9.93121M4.917 3.03188L12.6787 7.34395M12.2475 14.6745L13.9723 16.3993L17.422 12.9497"  stroke-width="1.5" stroke-linecap="round" stroke-linejoin="round"/>
</svg>
