<svg width="22" height="22" viewBox="0 0 22 22" fill="none" xmlns="http://www.w3.org/2000/svg">
<path d="M15.4473 10.8631H16.8274C17.0126 10.8631 17.1569 11.0279 17.1569 11.2131V18.4628C17.1569 18.6479 17.0126 18.7923 16.8274 18.7923H6.13812C5.95293 18.7923 5.80859 18.6479 5.80859 18.4628V11.2131C5.80859 11.0279 5.95293 10.8631 6.13812 10.8631H13.7173V7.65022C13.7173 6.59968 12.852 5.7139 11.781 5.7139H11.1424C10.0918 5.7139 9.22714 6.59968 9.22714 7.65022V8.86552H7.47667V7.48545C7.47667 5.59066 8.69198 4.02539 10.5663 4.02539H12.3379C14.2327 4.02539 15.448 5.59066 15.448 7.48545V10.8631H15.4473ZM10.5044 16.6919H12.4407L11.9668 14.6119C12.2964 14.4471 12.5231 14.0971 12.5231 13.7057C12.5231 13.1086 12.0492 12.6551 11.4726 12.6551C10.8959 12.6551 10.4424 13.1086 10.4424 13.7057C10.4424 14.0971 10.6692 14.4471 10.9987 14.6119L10.5044 16.6919Z" fill="#12B76A"/>
</svg>
