<svg width="22" height="21" viewBox="0 0 22 21" fill="none" xmlns="http://www.w3.org/2000/svg">
<path d="M11.209 0.195801C5.46095 0.195801 0.803711 4.8562 0.803711 10.6011C0.803711 16.346 5.46411 21.0064 11.209 21.0064C16.957 21.0064 21.6143 16.346 21.6143 10.6011C21.6143 4.8562 16.9539 0.195801 11.209 0.195801ZM11.209 18.6983C6.74462 18.6983 3.11494 15.0686 3.11494 10.6042C3.11494 6.13987 6.74462 2.51019 11.209 2.51019C15.6734 2.51019 19.303 6.13987 19.303 10.6042C19.303 15.0686 15.6702 18.6983 11.209 18.6983Z" fill="#DC6803"/>
<path d="M12.374 5.97241H10.0596V11.0755L13.8695 14.8854L15.5041 13.2507L12.374 10.1206V5.97241Z" fill="#DC6803"/>
</svg>
