<svg width="18" height="16" viewBox="0 0 18 16" fill="none" xmlns="http://www.w3.org/2000/svg">
<path d="M7.99278 15.9999C6.49517 15.9986 5.02801 15.5769 3.75824 14.7828C2.48847 13.9888 1.46709 12.8542 0.810323 11.5083C0.153554 10.1624 -0.11223 8.65914 0.0432141 7.16962C0.198658 5.68009 0.769088 4.26411 1.6896 3.08279C2.6101 1.90148 3.84372 1.00226 5.25008 0.487476C6.65643 -0.0273108 8.17905 -0.136999 9.64467 0.170892C11.1103 0.478784 12.4601 1.19189 13.5404 2.22907C14.6207 3.26625 15.3882 4.58585 15.7556 6.03771L16.2645 5.47707C16.3406 5.39212 16.4328 5.323 16.5357 5.27366C16.6386 5.22433 16.7501 5.19574 16.8641 5.18953C16.978 5.18333 17.0921 5.19962 17.1997 5.23749C17.3073 5.27535 17.4064 5.33405 17.4914 5.41022C17.5764 5.48639 17.6455 5.57855 17.6948 5.68144C17.7441 5.78432 17.7727 5.89592 17.7789 6.00985C17.7851 6.12378 17.7688 6.23782 17.731 6.34546C17.6931 6.4531 17.6344 6.55222 17.5582 6.63717L15.7556 8.5908C15.6386 8.71949 15.4855 8.80982 15.3162 8.84993C15.147 8.89005 14.9696 8.87807 14.8073 8.81558C14.6451 8.75309 14.5054 8.643 14.4068 8.49976C14.3082 8.35652 14.2552 8.18681 14.2548 8.01291C14.2582 6.76953 13.8924 5.55313 13.2037 4.51788C12.515 3.48263 11.5345 2.67513 10.3865 2.19774C9.23839 1.72034 7.97442 1.59454 6.75476 1.83627C5.53511 2.07801 4.41468 2.6764 3.53547 3.5556C2.65627 4.4348 2.05788 5.55523 1.81615 6.77489C1.57441 7.99454 1.70022 9.25851 2.17761 10.4066C2.65501 11.5547 3.46251 12.5352 4.49776 13.2238C5.53301 13.9125 6.74941 14.2783 7.99278 14.2749C8.83419 14.2781 9.66749 14.1104 10.4422 13.782C11.2168 13.4536 11.9168 12.9713 12.4995 12.3644C12.5782 12.2828 12.6722 12.2176 12.7762 12.1723C12.8801 12.1271 12.9919 12.1028 13.1053 12.1008C13.2186 12.0988 13.3312 12.1192 13.4367 12.1607C13.5422 12.2022 13.6384 12.2641 13.72 12.3428C13.8015 12.4215 13.8668 12.5155 13.912 12.6195C13.9572 12.7234 13.9815 12.8353 13.9835 12.9486C13.9855 13.0619 13.9652 13.1745 13.9237 13.28C13.8822 13.3855 13.8203 13.4817 13.7415 13.5633C12.9982 14.3375 12.1054 14.9526 11.1172 15.3715C10.129 15.7903 9.06606 16.0041 7.99278 15.9999Z" fill="#3BAA90"/>
<path d="M15.1125 8.86249C14.9761 8.86236 14.8416 8.82984 14.7201 8.76761L12.6931 7.72826C12.5923 7.67644 12.5027 7.60527 12.4294 7.51882C12.3561 7.43236 12.3005 7.33232 12.2659 7.22439C12.2313 7.11647 12.2182 7.00277 12.2275 6.88981C12.2368 6.77684 12.2683 6.66681 12.3201 6.566C12.3719 6.46519 12.4431 6.37558 12.5295 6.30227C12.616 6.22897 12.716 6.17341 12.824 6.13877C12.9319 6.10413 13.0456 6.09108 13.1585 6.10038C13.2715 6.10968 13.3815 6.14114 13.4824 6.19296L15.505 7.23231C15.6772 7.32054 15.8148 7.46412 15.8955 7.63996C15.9763 7.81581 15.9956 8.01371 15.9503 8.20184C15.905 8.38997 15.7978 8.55741 15.6458 8.67723C15.4939 8.79705 15.306 8.8623 15.1125 8.86249Z" fill="#3BAA90"/>
</svg>
