<svg width="75" height="76" viewBox="0 0 75 76" fill="none" xmlns="http://www.w3.org/2000/svg">
<circle opacity="0.15" cx="37.5" cy="37.8125" r="37.5" fill="#FECDCA"/>
<circle cx="37.8809" cy="38" r="19" fill="#F04438"/>
<path fill-rule="evenodd" clip-rule="evenodd" d="M37.8796 31.334C34.1929 31.334 31.2129 34.314 31.2129 38.0007C31.2129 41.6873 34.1929 44.6673 37.8796 44.6673C41.5662 44.6673 44.5462 41.6873 44.5462 38.0007C44.5462 34.314 41.5662 31.334 37.8796 31.334ZM37.8795 43.334C34.9395 43.334 32.5462 40.9406 32.5462 38.0006C32.5462 35.0606 34.9395 32.6673 37.8795 32.6673C40.8195 32.6673 43.2129 35.0606 43.2129 38.0006C43.2129 40.9406 40.8195 43.334 37.8795 43.334ZM37.88 37.0606L40.2734 34.6673L41.2134 35.6073L38.82 38.0006L41.2134 40.3939L40.2734 41.3339L37.88 38.9406L35.4867 41.3339L34.5467 40.3939L36.94 38.0006L34.5467 35.6073L35.4867 34.6673L37.88 37.0606Z" fill="white"/>
</svg>
