<svg width="42" height="41" viewBox="0 0 42 41" fill="none" xmlns="http://www.w3.org/2000/svg">
<circle opacity="0.15" cx="21.0005" cy="20.4214" r="20.2896" fill="#A6F4C5"/>
<g clip-path="url(#clip0_5423_102171)">
<path d="M30.845 10.9264C25.6234 5.69837 17.1525 5.69317 11.9244 10.9147C6.69643 16.1363 6.69117 24.6073 11.9128 29.8354C17.1343 35.0634 25.6054 35.0686 30.8335 29.847C36.0614 24.6255 36.0666 16.1543 30.845 10.9264ZM21.383 28.4859C20.6754 28.4859 20.1017 27.9123 20.1017 27.2045C20.1017 26.4968 20.6753 25.9231 21.383 25.9231C22.0907 25.9231 22.6644 26.4967 22.6644 27.2045C22.6643 27.9122 22.0907 28.4859 21.383 28.4859ZM23.4663 20.7708C22.7343 21.1987 22.6718 21.7251 22.6686 23.2419C22.6684 23.3422 22.6681 23.4434 22.6675 23.5451C22.663 24.262 22.0806 24.8401 21.3646 24.8401C21.3618 24.8401 21.359 24.8401 21.3562 24.8401C20.6365 24.8355 20.0569 24.2484 20.0614 23.5287C20.062 23.4306 20.0622 23.3332 20.0624 23.2366C20.0656 21.6777 20.0695 19.7378 22.151 18.5211C23.8211 17.5448 24.0316 16.9035 23.8357 16.0619C23.6056 15.0734 22.7029 14.8173 21.9985 14.8978C21.762 14.925 20.5823 15.1196 20.5823 16.2866C20.5823 17.0061 19.9989 17.5896 19.2792 17.5896C18.5595 17.5896 17.9762 17.0061 17.9762 16.2866C17.9762 14.1963 19.5079 12.5605 21.7011 12.3087C23.9599 12.0496 25.8802 13.3499 26.3738 15.4712C27.1116 18.64 24.4633 20.188 23.4663 20.7708Z" fill="#12B76A"/>
</g>
<defs>
<clipPath id="clip0_5423_102171">
<rect width="26.7578" height="26.7578" fill="white" transform="translate(8 7)"/>
</clipPath>
</defs>
</svg>
