<svg width="27" height="27" viewBox="0 0 27 27" fill="none" xmlns="http://www.w3.org/2000/svg">
<path d="M13.7837 3.01025C7.88655 3.01025 3.08887 7.80794 3.08887 13.705C3.08887 19.6021 7.88655 24.3998 13.7837 24.3998C19.6808 24.3998 24.4784 19.6021 24.4784 13.705C24.4784 7.80794 19.6808 3.01025 13.7837 3.01025ZM13.7837 22.2609C9.06618 22.2609 5.22782 18.4225 5.22782 13.705C5.22782 8.98757 9.06618 5.14921 13.7837 5.14921C18.5011 5.14921 22.3395 8.98757 22.3395 13.705C22.3395 18.4225 18.5011 22.2609 13.7837 22.2609Z" fill="#039855"/>
<path d="M11.6358 15.4025L9.1771 12.9481L7.66699 14.4625L11.638 18.4249L18.8099 11.253L17.2976 9.74072L11.6358 15.4025Z" fill="#039855"/>
</svg>
