<svg width="21" height="21" viewBox="0 0 21 21" fill="none" xmlns="http://www.w3.org/2000/svg">
<path d="M13.0293 3.01875H7.9718C7.6218 3.01875 7.3418 2.73875 7.3418 2.38875C7.3418 2.03875 7.6218 1.75 7.9718 1.75H13.0293C13.3793 1.75 13.6593 2.03 13.6593 2.38C13.6593 2.73 13.3793 3.01875 13.0293 3.01875Z" fill="#F04438"/>
<path d="M17.4737 13.125H14.9013C13.79 13.125 13.125 13.79 13.125 14.9013V17.4737C13.125 18.585 13.79 19.25 14.9013 19.25H17.4737C18.585 19.25 19.25 18.585 19.25 17.4737V14.9013C19.25 13.79 18.585 13.125 17.4737 13.125ZM17.2288 17.0275L16.1963 17.6225C15.9863 17.745 15.7762 17.8063 15.5837 17.8063C15.435 17.8063 15.3038 17.7712 15.1813 17.7013C14.9013 17.535 14.7438 17.2113 14.7438 16.7825V15.5925C14.7438 15.1637 14.9013 14.84 15.1813 14.6738C15.4613 14.5075 15.82 14.5425 16.1963 14.7525L17.2288 15.3475C17.5963 15.5663 17.8063 15.8638 17.8063 16.1875C17.8063 16.5113 17.605 16.8087 17.2288 17.0275Z" fill="#F04438"/>
<path d="M12.2493 17.4734V14.9009C12.2493 13.3171 13.3168 12.2496 14.9006 12.2496H17.4731C17.6743 12.2496 17.8668 12.2671 18.0506 12.3021C18.0681 12.0921 18.0856 11.8821 18.0856 11.6634C18.0856 7.47211 14.6818 4.06836 10.4993 4.06836C6.31684 4.06836 2.91309 7.47211 2.91309 11.6634C2.91309 15.8459 6.31684 19.2496 10.4993 19.2496C11.2431 19.2496 11.9518 19.1271 12.6343 18.9346C12.3893 18.5234 12.2493 18.0334 12.2493 17.4734ZM11.1556 11.3746C11.1556 11.7334 10.8581 12.0309 10.4993 12.0309C10.1406 12.0309 9.84309 11.7334 9.84309 11.3746V6.99961C9.84309 6.64086 10.1406 6.34336 10.4993 6.34336C10.8581 6.34336 11.1556 6.64086 11.1556 6.99961V11.3746Z" fill="#F04438"/>
</svg>
