<svg width="19" height="16" viewBox="0 0 19 16" fill="none" xmlns="http://www.w3.org/2000/svg">
<path d="M0.430593 5.00284C0.76432 4.61675 1.25012 4.39451 1.76253 4.39451C1.93898 4.39451 2.11395 4.4207 2.28232 4.47273L4.12885 5.00577L4.14659 5.01056L4.16433 5.01613L4.25588 5.0309C4.30167 5.0309 4.34739 5.02017 4.38806 4.99987L5.29546 4.55538L4.25513 3.17843C3.81064 2.66305 3.73905 1.91106 4.08751 1.31857C4.37548 0.831327 4.90411 0.530072 5.46821 0.530072C5.60774 0.530072 5.74582 0.54781 5.88016 0.583584L5.96436 0.606109L6.04407 0.640807L9.80879 2.29177L9.8649 2.31611L12.6824 0.935456C13.8725 0.349942 15.2391 0 16.3363 0C17.9599 0 18.5793 0.765643 18.8038 1.2219C19.4757 2.58961 18.4213 3.96845 15.6703 5.31994L12.8736 6.6973L11.2914 13.7121C11.1304 14.4844 10.4246 15.0581 9.61683 15.0581L9.53262 15.0559C8.70274 15.0141 8.03384 14.3987 7.92014 13.5829L7.1486 9.51476L6.2006 9.98175L6.18806 9.98802L6.17473 9.99396C5.38994 10.3564 4.57702 10.5477 3.82318 10.5477C2.59608 10.5477 1.63777 10.0301 1.19401 9.12715L1.18811 9.11461L1.18221 9.10207L0.173649 6.91773C-0.129759 6.2846 -0.0300827 5.53518 0.430593 5.00284ZM1.19921 6.43297L2.21148 8.62688C2.47355 9.15959 3.08118 9.4136 3.82322 9.4136C4.4006 9.4136 5.05919 9.26004 5.69932 8.96432L7.5466 8.05472L7.46021 7.62095L7.88548 7.33744L7.98516 7.83878L8.12176 8.51878L8.11508 8.5232L9.04022 13.4054C9.0712 13.69 9.30306 13.9089 9.58803 13.9233L9.61683 13.924C9.89147 13.924 10.1285 13.7321 10.1853 13.4626L11.8864 5.91919L15.1705 4.30225C16.1185 3.83638 18.2515 2.67092 17.7856 1.72255C17.5944 1.33275 17.0872 1.15329 16.4327 1.13707C17.0251 2.40733 15.5175 3.01426 15.5175 3.01426L15.1395 2.25822C15.6437 2.06923 15.7065 1.62844 15.6437 1.43944C15.6437 1.43944 15.602 1.33642 15.5319 1.20205C14.7732 1.31909 13.9346 1.58339 13.1815 1.95367L9.89147 3.56618L8.46135 4.24284L7.95707 3.99068L9.3532 3.33024L5.58848 1.67972C5.54862 1.66941 5.50877 1.66421 5.46887 1.66421C5.30574 1.66421 5.15066 1.74912 5.06505 1.89422C4.95799 2.07546 4.98604 2.30584 5.13151 2.45646L7.0297 4.96896L4.8893 6.01738C4.69069 6.1152 4.47364 6.16507 4.25584 6.16507C4.10744 6.16507 3.95904 6.14177 3.81505 6.09531L1.95524 5.55889C1.89178 5.53826 1.82677 5.52865 1.76257 5.52865C1.5831 5.52865 1.40891 5.60542 1.28782 5.7457C1.12243 5.93611 1.08773 6.20708 1.19921 6.43297Z" />
<path d="M14.0373 3.0144C14.2978 3.0144 14.5098 3.22593 14.5098 3.48692C14.5098 3.74791 14.2978 3.95947 14.0373 3.95947C13.7759 3.95947 13.5647 3.74791 13.5647 3.48692C13.5647 3.22597 13.7759 3.0144 14.0373 3.0144Z"/>
<path d="M12.2099 3.86487C12.4712 3.86487 12.6824 4.07639 12.6824 4.33738C12.6824 4.59837 12.4712 4.8099 12.2099 4.8099C11.9492 4.8099 11.7373 4.59837 11.7373 4.33738C11.7373 4.07643 11.9492 3.86487 12.2099 3.86487Z"/>
<path d="M10.3832 4.71533C10.6439 4.71533 10.8557 4.92686 10.8557 5.18785C10.8557 5.44884 10.6438 5.66036 10.3832 5.66036C10.1218 5.66036 9.91068 5.44884 9.91068 5.18785C9.91068 4.92686 10.1218 4.71533 10.3832 4.71533Z"/>
<path d="M8.55605 5.56592C8.81741 5.56592 9.02856 5.77744 9.02856 6.03843C9.02856 6.29942 8.81741 6.51095 8.55605 6.51095C8.29539 6.51095 8.08353 6.29942 8.08353 6.03843C8.08353 5.77748 8.29539 5.56592 8.55605 5.56592Z"/>
</svg>
