<svg width="33" height="29" viewBox="0 0 33 29" fill="none" xmlns="http://www.w3.org/2000/svg">
<path d="M24.4688 8.15626H14.8752L11.7812 5.06226C11.6134 4.8934 11.4137 4.75951 11.1937 4.66836C10.9737 4.57722 10.7379 4.53061 10.4998 4.53126H4.53125C4.05069 4.53173 3.58995 4.72284 3.25014 5.06265C2.91034 5.40246 2.71922 5.8632 2.71875 6.34376V22.7262C2.71939 23.1883 2.9033 23.6313 3.23016 23.958C3.55701 24.2847 4.0001 24.4684 4.46222 24.4688H24.5696C25.0234 24.4681 25.4584 24.2876 25.7792 23.9667C26.1001 23.6459 26.2806 23.2109 26.2812 22.7571V9.96876C26.2808 9.4882 26.0897 9.02746 25.7499 8.68765C25.41 8.34784 24.9493 8.15673 24.4688 8.15626ZM4.53125 6.34376H10.4998L12.3123 8.15626H4.53125V6.34376Z" fill="#98A2B3"/>
<circle cx="25.3539" cy="8.14105" r="6.78363" fill="#3BAA90"/>
<g clip-path="url(#clip0_2270_233625)">
<path d="M25.3522 2.48828C22.2318 2.48828 19.6992 5.02084 19.6992 8.1413C19.6992 11.2618 22.2318 13.7943 25.3522 13.7943C28.4727 13.7943 31.0053 11.2618 31.0053 8.1413C31.0053 5.02084 28.4727 2.48828 25.3522 2.48828ZM28.1788 8.70661H25.9175V10.9678H24.7869V8.70661H22.5257V7.576H24.7869V5.31479H25.9175V7.576H28.1788V8.70661Z" fill="white"/>
</g>
<defs>
<clipPath id="clip0_2270_233625">
<rect width="13.5673" height="13.5673" fill="white" transform="translate(18.5703 1.35742)"/>
</clipPath>
</defs>
</svg>
